#!OML:ASF F:\VICON\USERDATA\INSTALL\rory3\rory3.ASF
:FULLY-SPECIFIED
:DEGREES
370
root -5.12935 15.9706 20.6386 569.345 -16.372 189.858
lowerback -10.6959 2.81746 -4.01187
upperback -14.1651 1.74977 -1.11664
thorax -9.33665 0.258263 1.22615
lowerneck -17.6812 0.0987181 -2.62538
upperneck 19.7016 -0.934383 6.44208
head 9.15398 -0.0452568 2.51193
rclavicle -3.41413e-014 3.18055e-014
rhumerus 118.77 -44.3221 258.337
rradius 12.8329
rwrist 67.5363
rhand 4.11954 4.34648
rfingers 7.12502
rthumb 29.5298 -23.3249
lclavicle -3.41413e-014 3.18055e-014
lhumerus 2.32293 24.989 -18.8783
lradius 24.8306
lwrist -19.9422
lhand -3.94177 29.476
lfingers 7.12502
lthumb 21.8099 58.267
rfemur 8.03266 9.60833 31.1148
rtibia 0
rfoot -0.788332 -31.4259
rtoes -15.6413
lfemur -78.8188 26.5899 -38.6067
ltibia 59.7022
lfoot -34.5639 23.0817
ltoes 14.6976
371
root -5.07893 15.8546 20.7043 569.674 -16.315 189.446
lowerback -10.6663 2.5333 -4.21766
upperback -14.104 1.36185 -1.29574
thorax -9.26901 0.070651 1.14092
lowerneck -17.6226 0.31753 -2.83348
upperneck 19.0615 -0.534109 6.56116
head 8.90202 0.146834 2.62805
rclavicle -1.18774e-014 -1.90833e-014
rhumerus 120.056 -42.8065 258.222
rradius 12.9431
rwrist 67.3253
rhand 3.95802 4.40846
rfingers 7.12502
rthumb 29.3756 -23.2901
lclavicle -1.18774e-014 -1.90833e-014
lhumerus 3.22329 26.4625 -18.8326
lradius 24.8577
lwrist -20.1161
lhand -4.18979 29.5337
lfingers 7.12502
lthumb 21.5717 58.3523
rfemur 7.70966 9.47932 31.4719
rtibia 4.13472e-014
rfoot -6.56147 -32.6937
rtoes -9.29894
lfemur -80.4465 26.463 -39.5712
ltibia 61.0867
lfoot -34.2789 23.3693
ltoes 13.3145
372
root -5.02298 15.735 20.7799 569.958 -16.3889 189.01
lowerback -10.6165 2.21492 -4.50688
upperback -13.9523 0.965718 -1.40508
thorax -9.11242 -0.0991148 1.1746
lowerneck -17.5062 0.544921 -2.80582
upperneck 18.2535 -0.0922607 6.31972
head 8.58161 0.340485 2.581
rclavicle -3.52843e-015 1.62208e-013
rhumerus 121.194 -41.6037 258.701
rradius 13.0997
rwrist 66.4799
rhand 3.86621 4.22562
rfingers 7.12502
rthumb 29.288 -23.4882
lclavicle -3.52843e-015 1.62208e-013
lhumerus 4.13002 28.1543 -18.5179
lradius 24.9012
lwrist -20.3387
lhand -4.29608 29.5681
lfingers 7.12502
lthumb 21.4696 58.3983
rfemur 7.48128 9.20564 31.9749
rtibia 3.18055e-015
rfoot -14.0368 -34.0649
rtoes 0.398473
lfemur -82.0813 26.2552 -40.5775
ltibia 62.4146
lfoot -33.6404 24.0044
ltoes 10.9962
373
root -4.96269 15.6103 20.862 570.189 -16.3917 188.545
lowerback -9.78961 2.01649 -4.64907
upperback -14.2314 0.568393 -1.73148
thorax -9.89444 -0.311473 0.893853
lowerneck -17.2106 0.772076 -2.49368
upperneck 17.7734 0.228118 6.05413
head 8.35156 0.484256 2.46571
rclavicle -6.40459e-014 9.85972e-014
rhumerus 121.48 -40.9707 259.775
rradius 13.1401
rwrist 65.5985
rhand 3.59776 4.22043
rfingers 7.12502
rthumb 29.0316 -23.5379
lclavicle -6.40459e-014 9.85972e-014
lhumerus 5.44555 29.6917 -18.1114
lradius 24.9517
lwrist -21.0206
lhand -4.36493 29.3067
lfingers 7.12502
lthumb 21.4035 58.1444
rfemur 7.36405 8.96087 32.4409
rtibia -1.27222e-014
rfoot -19.8111 -35.2603
rtoes 5.70997
lfemur -83.5691 25.9896 -41.4133
ltibia 63.7616
lfoot -33.619 23.9723
ltoes 10.6774
374
root -4.90248 15.4845 20.9391 570.362 -16.4869 188.095
lowerback -9.22633 1.66218 -4.84155
upperback -14.2714 0.0419313 -1.84898
thorax -10.2488 -0.557467 0.871505
lowerneck -17.1318 1.04843 -2.57478
upperneck 17.1549 0.694498 6.0012
head 8.10689 0.700241 2.50493
rclavicle -1.08089e-015 2.06736e-014
rhumerus 122.381 -39.6493 260.143
rradius 13.2901
rwrist 65.3225
rhand 3.47536 4.48961
rfingers 7.12502
rthumb 28.9147 -23.2888
lclavicle -1.08089e-015 2.06736e-014
lhumerus 6.46311 32.2947 -17.4192
lradius 24.7902
lwrist -22.5295
lhand -4.72275 28.8374
lfingers 7.12502
lthumb 21.0598 57.7138
rfemur 7.30799 8.63713 32.8109
rtibia -9.54166e-015
rfoot -24.0278 -36.0678
rtoes 7.50616
lfemur -84.9223 25.6412 -42.0197
ltibia 65.1877
lfoot -33.9754 23.4669
ltoes 11.6834
375
root -4.85193 15.3577 21.0117 570.381 -16.8656 187.806
lowerback -8.65198 1.35389 -4.60924
upperback -14.2321 -0.402539 -1.97966
thorax -10.5061 -0.796065 0.60472
lowerneck -16.6117 1.34039 -2.76573
upperneck 16.0055 1.2141 6.02441
head 7.60692 0.938378 2.57485
rclavicle 2.168e-014 2.38542e-014
rhumerus 123.239 -38.7191 260.796
rradius 13.556
rwrist 64.6083
rhand 3.32512 4.84177
rfingers 7.12502
rthumb 28.7712 -22.9611
lclavicle 2.168e-014 2.38542e-014
lhumerus 7.55713 34.3904 -16.5238
lradius 24.8345
lwrist -23.329
lhand -5.0253 29.071
lfingers 7.12502
lthumb 20.7691 57.9795
rfemur 7.38065 8.12039 33.361
rtibia 4.13472e-014
rfoot -26.8058 -37.3391
rtoes 5.58134
lfemur -86.1855 25.2104 -42.3612
ltibia 66.6948
lfoot -34.0821 23.407
ltoes 11.6073
376
root -4.79888 15.2277 21.0888 570.338 -16.9746 187.376
lowerback -8.12167 1.06246 -4.7282
upperback -13.9728 -0.748755 -2.08407
thorax -10.4951 -0.930672 0.559756
lowerneck -16.3356 1.5741 -2.87808
upperneck 14.6399 1.69841 5.78339
head 7.08963 1.14946 2.53693
rclavicle 1.03368e-014 0
rhumerus 124.095 -38.1203 261.836
rradius 13.9267
rwrist 63.1252
rhand 2.7122 4.65803
rfingers 7.12502
rthumb 28.1855 -23.2429
lclavicle 1.03368e-014 0
lhumerus 8.25596 35.9953 -15.7338
lradius 25.0383
lwrist -23.1646
lhand -5.75373 29.534
lfingers 7.12502
lthumb 20.0691 58.5175
rfemur 7.66939 7.72369 33.6728
rtibia 1.27222e-014
rfoot -31.4813 -37.9098
rtoes 4.72491
lfemur -87.4094 25.0233 -43.0204
ltibia 68.1199
lfoot -33.8249 23.4723
ltoes 11.1064
377
root -4.73778 15.0956 21.1739 570.427 -16.9908 187.141
lowerback -7.75237 0.795996 -4.85735
upperback -13.7565 -1.05694 -2.04095
thorax -10.4413 -1.04276 0.680876
lowerneck -16.0862 1.80883 -3.08556
upperneck 13.2527 2.17941 5.59102
head 6.57548 1.35985 2.5278
rclavicle -2.01269e-014 9.38264e-014
rhumerus 124.983 -37.4348 262.861
rradius 14.3038
rwrist 61.9185
rhand 1.70143 4.50626
rfingers 7.12502
rthumb 27.219 -23.55
lclavicle -2.01269e-014 9.38264e-014
lhumerus 8.76831 37.5814 -14.8981
lradius 25.1777
lwrist -23.0154
lhand -6.06222 29.3135
lfingers 7.12502
lthumb 19.7725 58.3278
rfemur 7.67685 7.56452 34.052
rtibia 3.18055e-014
rfoot -35.8705 -38.0932
rtoes 2.80969
lfemur -88.9475 24.8452 -43.6175
ltibia 69.4705
lfoot -33.6231 23.5684
ltoes 10.9033
378
root -4.67397 14.985 21.2566 570.488 -16.8906 186.617
lowerback -6.99997 0.621193 -5.25867
upperback -13.732 -1.33547 -2.19419
thorax -10.8529 -1.13111 0.754569
lowerneck -15.4147 2.03041 -3.19158
upperneck 11.9499 2.55666 5.54512
head 6.02766 1.52968 2.53016
rclavicle 1.63997e-015 -1.43125e-014
rhumerus 125.054 -37.6457 264.734
rradius 14.8402
rwrist 60.0269
rhand 1.27591 4.6748
rfingers 7.12502
rthumb 26.8119 -23.4446
lclavicle 1.63997e-015 -1.43125e-014
lhumerus 9.81844 39.3401 -13.5483
lradius 25.1192
lwrist -23.6086
lhand -6.27943 28.6989
lfingers 7.12502
lthumb 19.5637 57.7346
rfemur 7.64187 7.37316 34.0025
rtibia -4.13472e-014
rfoot -38.5257 -38.9161
rtoes 0.272577
lfemur -90.0974 24.6788 -44.439
ltibia 70.5877
lfoot -33.8126 23.4838
ltoes 11.0497
379
root -4.62477 14.8804 21.3287 570.411 -16.869 185.987
lowerback -6.00776 0.504882 -5.40315
upperback -13.8116 -1.6082 -2.53326
thorax -11.5404 -1.25805 0.497325
lowerneck -14.6059 2.23885 -3.03539
upperneck 10.7668 2.86713 5.32704
head 5.51053 1.66287 2.42635
rclavicle 1.43622e-014 -4.45278e-014
rhumerus 124.876 -37.9356 266.41
rradius 15.5209
rwrist 58.3648
rhand 1.03409 5.12457
rfingers 7.12502
rthumb 26.5805 -23.0301
lclavicle 1.43622e-014 -4.45278e-014
lhumerus 11.1378 41.0955 -11.8921
lradius 24.9976
lwrist -24.7564
lhand -6.76175 28.5639
lfingers 7.12502
lthumb 19.0999 57.646
rfemur 7.86936 7.00952 33.7609
rtibia 2.22639e-014
rfoot -41.0548 -39.7929
rtoes -0.820556
lfemur -90.9345 24.6016 -45.3802
ltibia 71.5957
lfoot -33.7266 23.5536
ltoes 10.3355
380
root -4.57719 14.7798 21.4031 570.263 -16.8564 185.34
lowerback -5.38088 0.198446 -5.86679
upperback -13.4818 -1.96998 -2.53561
thorax -11.5044 -1.34918 0.770483
lowerneck -14.4414 2.55835 -3.10764
upperneck 9.39415 3.4203 4.89038
head 5.03541 1.90094 2.3186
rclavicle 4.69629e-014 2.54444e-014
rhumerus 125.936 -37.3333 267.16
rradius 15.8488
rwrist 57.1804
rhand 0.0552039 5.56538
rfingers 7.12502
rthumb 25.6432 -22.7278
lclavicle 4.69629e-014 2.54444e-014
lhumerus 11.2648 42.5953 -10.8588
lradius 24.9858
lwrist -25.4196
lhand -7.30484 28.6998
lfingers 7.12502
lthumb 18.5776 57.8327
rfemur 8.17363 6.61591 33.4562
rtibia 4.13472e-014
rfoot -43.3986 -40.4
rtoes -1.25482
lfemur -91.6 24.5786 -46.3257
ltibia 72.4867
lfoot -33.6076 23.3998
ltoes 10.0637
381
root -4.5268 14.6932 21.4829 570.163 -16.5914 184.698
lowerback -4.70521 -0.0363207 -6.36525
upperback -13.153 -2.26212 -2.63393
thorax -11.505 -1.41291 0.961394
lowerneck -14.2599 2.94628 -3.15797
upperneck 7.97775 4.01069 4.65837
head 4.54407 2.17169 2.27037
rclavicle 3.03147e-015 3.97569e-014
rhumerus 126.373 -37.5499 268.669
rradius 16.2228
rwrist 54.48
rhand -1.59429 5.67211
rfingers 7.12502
rthumb 24.0625 -22.8393
lclavicle 3.03147e-015 3.97569e-014
lhumerus 11.0627 43.4911 -10.2588
lradius 25.0918
lwrist -25.6089
lhand -7.59735 28.5568
lfingers 7.12502
lthumb 18.2962 57.7163
rfemur 8.31074 6.48492 32.9941
rtibia 3.18055e-015
rfoot -45.0617 -40.8377
rtoes -1.46618
lfemur -92.2766 24.6507 -47.326
ltibia 73.2402
lfoot -33.5351 23.2532
ltoes 10.377
382
root -4.48151 14.6136 21.5608 570.102 -16.3162 184.203
lowerback -4.0599 -0.103312 -6.65499
upperback -12.9932 -2.3894 -2.84224
thorax -11.7065 -1.4367 0.91654
lowerneck -13.5108 3.2426 -2.98871
upperneck 6.50203 4.41453 4.39432
head 3.96111 2.34987 2.14705
rclavicle -1.8487e-014 -2.22639e-014
rhumerus 126.533 -38.0082 270.122
rradius 16.649
rwrist 51.7798
rhand -3.01938 6.01236
rfingers 7.12502
rthumb 22.6954 -22.673
lclavicle -1.8487e-014 -2.22639e-014
lhumerus 11.4088 44.2433 -9.12052
lradius 25.0501
lwrist -26.1125
lhand -7.86917 28.3412
lfingers 7.12502
lthumb 18.0347 57.5251
rfemur 8.34234 6.46437 32.5911
rtibia 9.54166e-015
rfoot -46.9129 -41.0506
rtoes -0.953025
lfemur -93.0391 24.7564 -48.2675
ltibia 73.9295
lfoot -33.3901 23.2136
ltoes 10.3109
383
root -4.44336 14.5401 21.6369 570.1 -16.1486 183.856
lowerback -3.53232 -0.189652 -6.73002
upperback -12.9092 -2.54947 -2.99965
thorax -11.925 -1.50269 0.810576
lowerneck -12.8891 3.51641 -2.90687
upperneck 4.98332 4.80226 4.06808
head 3.78048 2.50292 2.24047
rclavicle -6.26172e-015 1.36764e-013
rhumerus 126.21 -38.6703 271.814
rradius 17.0959
rwrist 48.9764
rhand -4.40644 6.44019
rfingers 7.12502
rthumb 21.3636 -22.4021
lclavicle -6.26172e-015 1.36764e-013
lhumerus 11.1546 44.0845 -8.61098
lradius 25.0666
lwrist -26.007
lhand -7.84839 28.2294
lfingers 7.12502
lthumb 18.0547 57.4114
rfemur 8.28016 6.44453 32.3257
rtibia 1.27222e-014
rfoot -48.7461 -41.2786
rtoes -0.619343
lfemur -93.9425 24.8852 -49.2046
ltibia 74.5765
lfoot -33.2665 23.017
ltoes 9.98196
